<mxfile host="65bd71144e">
    <diagram id="qqamwQmWlEc8Zaew14Ej" name="PÃ¡gina-1">
        <mxGraphModel dx="574" dy="502" grid="1" gridSize="10" guides="1" tooltips="1" connect="1" arrows="1" fold="1" page="1" pageScale="1" pageWidth="827" pageHeight="1169" math="0" shadow="0">
            <root>
                <mxCell id="0"/>
                <mxCell id="1" parent="0"/>
                <mxCell id="7" value="produtos" style="shape=table;startSize=30;container=1;collapsible=0;childLayout=tableLayout;" vertex="1" parent="1">
                    <mxGeometry x="120" y="100" width="370" height="270" as="geometry"/>
                </mxCell>
                <mxCell id="8" value="" style="shape=tableRow;horizontal=0;startSize=0;swimlaneHead=0;swimlaneBody=0;strokeColor=inherit;top=0;left=0;bottom=0;right=0;collapsible=0;dropTarget=0;fillColor=none;points=[[0,0.5],[1,0.5]];portConstraint=eastwest;" vertex="1" parent="7">
                    <mxGeometry y="30" width="370" height="40" as="geometry"/>
                </mxCell>
                <mxCell id="9" value="id" style="shape=partialRectangle;html=1;whiteSpace=wrap;connectable=0;strokeColor=inherit;overflow=hidden;fillColor=none;top=0;left=0;bottom=0;right=0;pointerEvents=1;" vertex="1" parent="8">
                    <mxGeometry width="133" height="40" as="geometry">
                        <mxRectangle width="133" height="40" as="alternateBounds"/>
                    </mxGeometry>
                </mxCell>
                <mxCell id="10" value="SERIAL PK" style="shape=partialRectangle;html=1;whiteSpace=wrap;connectable=0;strokeColor=inherit;overflow=hidden;fillColor=none;top=0;left=0;bottom=0;right=0;pointerEvents=1;" vertex="1" parent="8">
                    <mxGeometry x="133" width="237" height="40" as="geometry">
                        <mxRectangle width="237" height="40" as="alternateBounds"/>
                    </mxGeometry>
                </mxCell>
                <mxCell id="11" value="" style="shape=tableRow;horizontal=0;startSize=0;swimlaneHead=0;swimlaneBody=0;strokeColor=inherit;top=0;left=0;bottom=0;right=0;collapsible=0;dropTarget=0;fillColor=none;points=[[0,0.5],[1,0.5]];portConstraint=eastwest;" vertex="1" parent="7">
                    <mxGeometry y="70" width="370" height="40" as="geometry"/>
                </mxCell>
                <mxCell id="12" value="nome" style="shape=partialRectangle;html=1;whiteSpace=wrap;connectable=0;strokeColor=inherit;overflow=hidden;fillColor=none;top=0;left=0;bottom=0;right=0;pointerEvents=1;" vertex="1" parent="11">
                    <mxGeometry width="133" height="40" as="geometry">
                        <mxRectangle width="133" height="40" as="alternateBounds"/>
                    </mxGeometry>
                </mxCell>
                <mxCell id="13" value="VARCHAR(100)" style="shape=partialRectangle;html=1;whiteSpace=wrap;connectable=0;strokeColor=inherit;overflow=hidden;fillColor=none;top=0;left=0;bottom=0;right=0;pointerEvents=1;" vertex="1" parent="11">
                    <mxGeometry x="133" width="237" height="40" as="geometry">
                        <mxRectangle width="237" height="40" as="alternateBounds"/>
                    </mxGeometry>
                </mxCell>
                <mxCell id="14" value="" style="shape=tableRow;horizontal=0;startSize=0;swimlaneHead=0;swimlaneBody=0;strokeColor=inherit;top=0;left=0;bottom=0;right=0;collapsible=0;dropTarget=0;fillColor=none;points=[[0,0.5],[1,0.5]];portConstraint=eastwest;" vertex="1" parent="7">
                    <mxGeometry y="110" width="370" height="40" as="geometry"/>
                </mxCell>
                <mxCell id="15" value="marca" style="shape=partialRectangle;html=1;whiteSpace=wrap;connectable=0;strokeColor=inherit;overflow=hidden;fillColor=none;top=0;left=0;bottom=0;right=0;pointerEvents=1;" vertex="1" parent="14">
                    <mxGeometry width="133" height="40" as="geometry">
                        <mxRectangle width="133" height="40" as="alternateBounds"/>
                    </mxGeometry>
                </mxCell>
                <mxCell id="16" value="VARCHAR(50)" style="shape=partialRectangle;html=1;whiteSpace=wrap;connectable=0;strokeColor=inherit;overflow=hidden;fillColor=none;top=0;left=0;bottom=0;right=0;pointerEvents=1;" vertex="1" parent="14">
                    <mxGeometry x="133" width="237" height="40" as="geometry">
                        <mxRectangle width="237" height="40" as="alternateBounds"/>
                    </mxGeometry>
                </mxCell>
                <mxCell id="17" value="" style="shape=tableRow;horizontal=0;startSize=0;swimlaneHead=0;swimlaneBody=0;strokeColor=inherit;top=0;left=0;bottom=0;right=0;collapsible=0;dropTarget=0;fillColor=none;points=[[0,0.5],[1,0.5]];portConstraint=eastwest;" vertex="1" parent="7">
                    <mxGeometry y="150" width="370" height="40" as="geometry"/>
                </mxCell>
                <mxCell id="18" value="preco" style="shape=partialRectangle;html=1;whiteSpace=wrap;connectable=0;strokeColor=inherit;overflow=hidden;fillColor=none;top=0;left=0;bottom=0;right=0;pointerEvents=1;" vertex="1" parent="17">
                    <mxGeometry width="133" height="40" as="geometry">
                        <mxRectangle width="133" height="40" as="alternateBounds"/>
                    </mxGeometry>
                </mxCell>
                <mxCell id="19" value="DECIMAL(10,2)" style="shape=partialRectangle;html=1;whiteSpace=wrap;connectable=0;strokeColor=inherit;overflow=hidden;fillColor=none;top=0;left=0;bottom=0;right=0;pointerEvents=1;" vertex="1" parent="17">
                    <mxGeometry x="133" width="237" height="40" as="geometry">
                        <mxRectangle width="237" height="40" as="alternateBounds"/>
                    </mxGeometry>
                </mxCell>
                <mxCell id="20" value="" style="shape=tableRow;horizontal=0;startSize=0;swimlaneHead=0;swimlaneBody=0;strokeColor=inherit;top=0;left=0;bottom=0;right=0;collapsible=0;dropTarget=0;fillColor=none;points=[[0,0.5],[1,0.5]];portConstraint=eastwest;" vertex="1" parent="7">
                    <mxGeometry y="190" width="370" height="40" as="geometry"/>
                </mxCell>
                <mxCell id="21" value="categoria" style="shape=partialRectangle;html=1;whiteSpace=wrap;connectable=0;strokeColor=inherit;overflow=hidden;fillColor=none;top=0;left=0;bottom=0;right=0;pointerEvents=1;" vertex="1" parent="20">
                    <mxGeometry width="133" height="40" as="geometry">
                        <mxRectangle width="133" height="40" as="alternateBounds"/>
                    </mxGeometry>
                </mxCell>
                <mxCell id="22" value="VARCHAR(30)" style="shape=partialRectangle;html=1;whiteSpace=wrap;connectable=0;strokeColor=inherit;overflow=hidden;fillColor=none;top=0;left=0;bottom=0;right=0;pointerEvents=1;" vertex="1" parent="20">
                    <mxGeometry x="133" width="237" height="40" as="geometry">
                        <mxRectangle width="237" height="40" as="alternateBounds"/>
                    </mxGeometry>
                </mxCell>
                <mxCell id="23" value="" style="shape=tableRow;horizontal=0;startSize=0;swimlaneHead=0;swimlaneBody=0;strokeColor=inherit;top=0;left=0;bottom=0;right=0;collapsible=0;dropTarget=0;fillColor=none;points=[[0,0.5],[1,0.5]];portConstraint=eastwest;" vertex="1" parent="7">
                    <mxGeometry y="230" width="370" height="40" as="geometry"/>
                </mxCell>
                <mxCell id="24" value="estoque" style="shape=partialRectangle;html=1;whiteSpace=wrap;connectable=0;strokeColor=inherit;overflow=hidden;fillColor=none;top=0;left=0;bottom=0;right=0;pointerEvents=1;" vertex="1" parent="23">
                    <mxGeometry width="133" height="40" as="geometry">
                        <mxRectangle width="133" height="40" as="alternateBounds"/>
                    </mxGeometry>
                </mxCell>
                <mxCell id="25" value="INT" style="shape=partialRectangle;html=1;whiteSpace=wrap;connectable=0;strokeColor=inherit;overflow=hidden;fillColor=none;top=0;left=0;bottom=0;right=0;pointerEvents=1;" vertex="1" parent="23">
                    <mxGeometry x="133" width="237" height="40" as="geometry">
                        <mxRectangle width="237" height="40" as="alternateBounds"/>
                    </mxGeometry>
                </mxCell>
            </root>
        </mxGraphModel>
    </diagram>
</mxfile>